<?xml version="1.0" encoding="utf-8"?>
<!-- Generator: Adobe Illustrator 23.0.2, SVG Export Plug-In . SVG Version: 6.00 Build 0)  -->
<svg version="1.1" id="Layer_1" xmlns="http://www.w3.org/2000/svg" xmlns:xlink="http://www.w3.org/1999/xlink" x="0px" y="0px"
	 viewBox="0 0 568 68.01" style="enable-background:new 0 0 568 68.01;" xml:space="preserve">
<style type="text/css">
	.st0{fill:url(#SVGID_1_);}
	.st1{fill:none;stroke:#000000;stroke-width:9;stroke-miterlimit:10;}
	.st2{fill:none;stroke:#ED1C24;stroke-width:9;stroke-miterlimit:10;}
	.st3{fill:#FFFFFF;}
	.st4{fill:none;stroke:#0071BC;stroke-width:5;stroke-linecap:round;stroke-miterlimit:10;}
	.st5{fill:none;stroke:url(#SVGID_2_);stroke-width:5;stroke-miterlimit:10;}
	.st6{fill:none;stroke:url(#SVGID_3_);stroke-width:5;stroke-miterlimit:10;}
	.st7{fill:none;stroke:url(#SVGID_4_);stroke-width:5;stroke-miterlimit:10;}
	.st8{fill:none;stroke:url(#SVGID_5_);stroke-width:5;stroke-miterlimit:10;}
	.st9{fill:none;stroke:url(#SVGID_6_);stroke-width:5;stroke-miterlimit:10;}
	.st10{fill:url(#SVGID_7_);}
	.st11{fill:url(#SVGID_8_);}
	.st12{fill:url(#SVGID_9_);}
	.st13{fill:url(#SVGID_10_);}
	.st14{fill:#330000;}
	.st15{fill:url(#SVGID_11_);}
	.st16{fill:url(#SVGID_12_);}
	.st17{fill:url(#SVGID_13_);}
	.st18{fill:url(#SVGID_14_);}
	.st19{fill:url(#SVGID_15_);}
	.st20{fill:url(#SVGID_16_);}
	.st21{fill:url(#SVGID_17_);}
	.st22{fill:url(#SVGID_18_);}
	.st23{fill:url(#SVGID_19_);}
	.st24{fill:url(#SVGID_20_);}
	.st25{fill:url(#SVGID_21_);}
	.st26{fill:url(#SVGID_22_);}
	.st27{fill:url(#SVGID_23_);}
	.st28{fill:url(#SVGID_24_);}
	.st29{fill:url(#SVGID_25_);}
	.st30{fill:url(#SVGID_26_);}
	.st31{fill:url(#SVGID_27_);}
	.st32{fill:url(#SVGID_28_);}
	.st33{fill:url(#SVGID_29_);}
	.st34{fill:url(#SVGID_30_);}
	.st35{fill:url(#SVGID_31_);}
	.st36{fill:url(#SVGID_32_);}
	.st37{fill:url(#SVGID_33_);}
	.st38{fill:url(#SVGID_34_);}
	.st39{fill:url(#SVGID_35_);}
	.st40{fill:url(#SVGID_36_);}
	.st41{fill:url(#SVGID_37_);}
	.st42{fill:url(#SVGID_38_);}
	.st43{fill:url(#SVGID_39_);}
	.st44{fill:url(#SVGID_40_);}
	.st45{fill:url(#SVGID_41_);}
	.st46{fill:url(#SVGID_42_);}
	.st47{fill:url(#SVGID_43_);}
	.st48{fill:url(#SVGID_44_);}
	.st49{fill:url(#SVGID_45_);}
	.st50{fill:url(#SVGID_46_);}
	.st51{fill:url(#SVGID_47_);}
	.st52{fill:url(#SVGID_48_);stroke:url(#SVGID_49_);stroke-miterlimit:10;}
	.st53{fill:url(#SVGID_50_);}
	.st54{fill:url(#SVGID_51_);}
	.st55{fill:url(#SVGID_52_);}
	.st56{fill:url(#SVGID_53_);}
	.st57{fill:url(#SVGID_54_);}
	.st58{fill:url(#SVGID_55_);}
	.st59{fill:url(#SVGID_56_);}
	.st60{fill:url(#SVGID_57_);}
	.st61{fill:url(#SVGID_58_);}
	.st62{fill:url(#SVGID_59_);}
	.st63{fill:url(#SVGID_60_);}
	.st64{fill:url(#SVGID_61_);}
	.st65{fill:url(#SVGID_62_);}
	.st66{fill:url(#SVGID_63_);}
	.st67{fill:url(#SVGID_64_);}
	.st68{fill:url(#SVGID_65_);}
	.st69{fill:url(#SVGID_66_);}
	.st70{fill:url(#SVGID_67_);}
	.st71{fill:url(#SVGID_68_);}
	.st72{fill:url(#SVGID_69_);}
	.st73{fill:url(#SVGID_70_);}
	.st74{fill:url(#SVGID_71_);}
	.st75{fill:url(#SVGID_72_);}
	.st76{fill:url(#SVGID_73_);}
	.st77{fill:url(#SVGID_74_);}
	.st78{fill:url(#SVGID_75_);}
	.st79{fill:url(#SVGID_76_);}
	.st80{fill:url(#SVGID_77_);}
	.st81{fill:url(#SVGID_78_);}
	.st82{fill:url(#SVGID_79_);}
	.st83{fill:url(#SVGID_80_);}
	.st84{fill:url(#SVGID_81_);}
	.st85{fill:url(#SVGID_82_);}
	.st86{fill:url(#SVGID_83_);}
	.st87{fill:url(#SVGID_84_);}
	.st88{fill:url(#SVGID_85_);}
	.st89{fill:url(#SVGID_86_);}
	.st90{fill:url(#SVGID_87_);}
	.st91{fill:url(#SVGID_88_);}
	.st92{fill:url(#SVGID_89_);}
	.st93{fill:url(#SVGID_90_);}
	.st94{fill:url(#SVGID_91_);}
	.st95{fill:url(#SVGID_92_);}
	.st96{fill:url(#SVGID_93_);}
	.st97{fill:url(#SVGID_94_);}
	.st98{fill:url(#SVGID_95_);}
	.st99{fill:url(#SVGID_96_);}
	.st100{fill:url(#SVGID_97_);}
	.st101{fill:url(#SVGID_98_);}
	.st102{fill:url(#SVGID_99_);}
	.st103{fill:url(#SVGID_100_);}
	.st104{fill:url(#SVGID_101_);}
	.st105{fill:url(#SVGID_102_);}
	.st106{fill:url(#SVGID_103_);}
	.st107{fill:url(#SVGID_104_);}
	.st108{fill:url(#SVGID_105_);}
	.st109{fill:url(#SVGID_106_);}
	.st110{fill:url(#SVGID_107_);}
	.st111{fill:url(#SVGID_108_);}
	.st112{fill:url(#SVGID_109_);}
	.st113{fill:url(#SVGID_110_);}
	.st114{fill:url(#SVGID_111_);}
	.st115{fill:url(#SVGID_112_);}
	.st116{fill:url(#SVGID_113_);}
	.st117{fill:url(#SVGID_114_);}
	.st118{fill:url(#SVGID_115_);}
	.st119{fill:none;stroke:#000000;stroke-width:6;stroke-miterlimit:10;}
	.st120{fill:#FFFFFF;stroke:#000000;stroke-width:6;stroke-miterlimit:10;}
	.st121{fill:url(#SVGID_116_);}
	.st122{fill:url(#SVGID_117_);}
	.st123{fill:url(#SVGID_118_);}
	.st124{fill:url(#SVGID_119_);}
	.st125{fill:url(#SVGID_120_);}
	.st126{fill:url(#SVGID_121_);}
	.st127{fill:url(#SVGID_122_);}
	.st128{fill:url(#SVGID_123_);}
	.st129{fill:url(#SVGID_124_);}
	.st130{fill:url(#SVGID_125_);}
	.st131{fill:url(#SVGID_126_);}
	.st132{fill:url(#SVGID_127_);}
	.st133{fill:url(#SVGID_128_);}
	.st134{fill:url(#SVGID_129_);}
	.st135{fill:url(#SVGID_130_);}
	.st136{fill:url(#SVGID_131_);}
	.st137{fill:url(#SVGID_132_);}
	.st138{fill:url(#SVGID_133_);}
	.st139{fill:url(#SVGID_134_);}
	.st140{fill:url(#SVGID_135_);}
	.st141{fill:url(#SVGID_136_);}
	.st142{fill:url(#SVGID_137_);}
	.st143{fill:url(#SVGID_138_);}
	.st144{fill:url(#SVGID_139_);}
	.st145{fill:url(#SVGID_140_);}
	.st146{fill:url(#SVGID_141_);}
	.st147{fill:url(#SVGID_142_);}
	.st148{fill:url(#SVGID_143_);}
	.st149{fill:url(#SVGID_144_);}
	.st150{fill:url(#SVGID_145_);}
	.st151{fill:url(#SVGID_146_);}
	.st152{fill:url(#SVGID_147_);}
	.st153{fill:url(#SVGID_148_);}
	.st154{fill:url(#SVGID_149_);}
	.st155{fill:url(#SVGID_150_);}
	.st156{fill:url(#SVGID_151_);}
	.st157{fill:url(#SVGID_152_);}
	.st158{fill:url(#SVGID_153_);}
	.st159{fill:url(#SVGID_154_);}
	.st160{fill:url(#SVGID_155_);}
	.st161{fill:url(#SVGID_156_);}
	.st162{fill:url(#SVGID_157_);}
	.st163{fill:url(#SVGID_158_);}
	.st164{fill:url(#SVGID_159_);}
	.st165{fill:url(#SVGID_160_);}
	.st166{fill:url(#SVGID_161_);}
	.st167{fill:url(#SVGID_162_);}
	.st168{fill:url(#SVGID_163_);}
	.st169{fill:url(#SVGID_164_);}
	.st170{fill:url(#SVGID_165_);}
	.st171{fill:url(#SVGID_166_);}
	.st172{fill:url(#SVGID_167_);}
	.st173{fill:url(#SVGID_168_);}
	.st174{fill:url(#SVGID_169_);}
	.st175{fill:url(#SVGID_170_);}
	.st176{fill:url(#SVGID_171_);}
	.st177{fill:url(#SVGID_172_);}
	.st178{fill:url(#SVGID_173_);}
	.st179{fill:url(#SVGID_174_);}
	.st180{fill:url(#SVGID_175_);}
	.st181{fill:url(#SVGID_176_);}
	.st182{fill:url(#SVGID_177_);}
	.st183{fill:url(#SVGID_178_);}
	.st184{fill:url(#SVGID_179_);}
	.st185{fill:url(#SVGID_180_);}
	.st186{fill:url(#SVGID_181_);}
	.st187{fill:url(#SVGID_182_);}
	.st188{fill:url(#SVGID_183_);}
	.st189{fill:url(#SVGID_184_);}
	.st190{fill:url(#SVGID_185_);}
	.st191{fill:url(#SVGID_186_);}
	.st192{fill:url(#SVGID_187_);}
	.st193{fill:url(#SVGID_188_);}
	.st194{fill:url(#SVGID_189_);}
	.st195{fill:url(#SVGID_190_);}
	.st196{fill:url(#SVGID_191_);}
	.st197{fill:url(#SVGID_192_);}
	.st198{fill:url(#SVGID_193_);}
	.st199{fill:url(#SVGID_194_);}
	.st200{fill:url(#SVGID_195_);}
	.st201{fill:url(#SVGID_196_);}
	.st202{fill:url(#SVGID_197_);}
	.st203{fill:url(#SVGID_198_);}
	.st204{fill:url(#SVGID_199_);}
	.st205{fill:url(#SVGID_200_);}
	.st206{fill:url(#SVGID_201_);}
	.st207{fill:#8E001B;}
</style>
<g>
	<g>
		<path d="M25.2,6.15L19.43,22c-0.2,0.56-0.62,0.9-1.09,0.9h-0.48c-0.47,0-0.89-0.35-1.09-0.9L11,6.15C9.54,2.15,6.91,0.13,2.95,0H0
			v26.53h3.72V4.11c0.03,0,0.05,0.01,0.08,0.01l0,0c1.84,0.3,2.96,1.35,3.74,3.52l5.77,15.85c0.45,1.23,1.75,3.05,3.11,3.05h3.36
			c1.36,0,2.66-1.82,3.11-3.05l5.77-15.85c0.78-2.14,1.89-3.19,3.72-3.5c0.03-0.01,0.07-0.01,0.1-0.02v22.42h3.72V0l-2.94,0
			C29.28,0.16,26.65,2.18,25.2,6.15z"/>
		<path d="M57.44,0H45.88v26.53h3.72V4.03h7.78c1.29,0.07,2.36,0.75,3.27,2.1l13.67,20.29l0.08,0.12H79L63.64,3.75
			C62.05,1.39,59.91,0.09,57.44,0z"/>
		<path d="M88.44,7.54v11.45c0,4.16,2.74,7.54,6.11,7.54h22.99V22.5H94.55c-0.18,0-0.35-0.03-0.52-0.08
			c-1.17-0.39-1.88-2.05-1.88-3.43V7.54c0-1.38,0.7-3.04,1.87-3.43c0.17-0.05,0.34-0.08,0.52-0.08h22.99V0H94.55
			C91.18,0,88.44,3.38,88.44,7.54z"/>
		<rect x="127.23" y="0" width="3.72" height="26.53"/>
		<polygon points="153.4,11.25 136.58,11.25 136.58,15.28 153.4,15.28 153.4,26.53 157.12,26.53 157.12,0 153.4,0 		"/>
		<rect x="166.8" y="0" width="3.72" height="26.53"/>
		<path d="M206.6,22.5h-0.65c-1.41,0-2.52-0.67-3.48-2.1L191.24,3.75C189.59,1.3,187.35,0,184.76,0h-4.56v26.53h3.72V4.03h0.65
			c1.41,0,2.52,0.67,3.48,2.1l11.22,16.65c1.66,2.46,3.9,3.75,6.48,3.75h4.56V0h-3.72V22.5z"/>
		<rect x="229.36" y="11.25" width="20.54" height="4.03"/>
		<path d="M220,7.54v11.45c0,4.16,2.74,7.54,6.11,7.54h23.78V22.5h-23.78c-0.18,0-0.35-0.03-0.52-0.08
			c-1.17-0.39-1.88-2.05-1.88-3.43V7.54c0-1.38,0.7-3.04,1.87-3.43c0.17-0.05,0.34-0.08,0.52-0.08h23.78V0h-23.78
			C222.75,0,220,3.38,220,7.54z"/>
		<path d="M290.2,22.22c-0.08-0.05-0.15-0.1-0.22-0.16c-0.78-0.64-1.27-1.82-1.27-3.07V0H285v18.99c0,2.52,1.02,4.87,2.74,6.28
			c0.19,0.15,0.38,0.29,0.57,0.42c0.86,0.55,1.81,0.84,2.76,0.84h22.23V22.5h-22.23C290.79,22.5,290.49,22.41,290.2,22.22z"/>
		<rect x="332.35" y="11.25" width="20.54" height="4.03"/>
		<path d="M322.99,7.54v11.45c0,4.16,2.74,7.54,6.11,7.54h23.78V22.5H329.1c-0.18,0-0.35-0.03-0.52-0.08
			c-1.17-0.39-1.88-2.05-1.88-3.43V7.54c0-1.38,0.7-3.04,1.88-3.43c0.16-0.05,0.34-0.08,0.52-0.08h23.78V0H329.1
			C325.73,0,322.99,3.38,322.99,7.54z"/>
		<path d="M374.13,0h-11.57v26.53h3.72V4.03h7.78c1.29,0.07,2.36,0.75,3.27,2.1l13.75,20.41h4.6L380.33,3.75
			C378.74,1.39,376.6,0.09,374.13,0z"/>
		<path d="M435.02,10.28V7.54c0-4.16-2.74-7.54-6.11-7.54h-23.78v26.53h3.72V4.03h20.06c1.54,0,2.39,2.08,2.39,3.51v2.74
			c0,1.44-0.85,3.51-2.39,3.51h-14.42v4.03h10.87l5.71,8.71h4.56l-5.78-8.8C432.79,17.16,435.02,13.98,435.02,10.28z"/>
		<path d="M471.5,22.5h-0.65c-1.41,0-2.52-0.67-3.48-2.1L456.14,3.75C454.48,1.3,452.24,0,449.66,0h-4.56v26.53h3.72V4.03h0.65
			c1.41,0,2.52,0.67,3.48,2.1l11.22,16.65c1.66,2.46,3.9,3.75,6.48,3.75h4.56V0h-3.72V22.5z"/>
		<rect x="484.9" y="0" width="3.72" height="26.53"/>
		<path d="M524.7,22.5h-0.65c-1.41,0-2.52-0.67-3.48-2.1L509.35,3.75C507.69,1.3,505.45,0,502.86,0h-4.56v26.53h3.72V4.03h0.65
			c1.41,0,2.52,0.67,3.48,2.1l11.22,16.65c1.66,2.46,3.9,3.75,6.48,3.75h4.56V0h-3.72V22.5z"/>
		<path d="M543.7,4.11c0.16-0.05,0.34-0.08,0.52-0.08H568V0h-23.78c-3.37,0-6.11,3.38-6.11,7.54v11.45c0,4.16,2.74,7.54,6.11,7.54
			H568V11.25h-20.54v4.03h16.82v7.22h-20.07c-0.18,0-0.35-0.03-0.52-0.08c-1.17-0.39-1.88-2.05-1.88-3.43V7.54
			C541.82,6.16,542.53,4.5,543.7,4.11z"/>
	</g>
	<g>
		<linearGradient id="SVGID_1_" gradientUnits="userSpaceOnUse" x1="231.4121" y1="42.6516" x2="231.4121" y2="139.3674">
			<stop  offset="0" style="stop-color:#BA0000"/>
			<stop  offset="0.4851" style="stop-color:#5F0E15"/>
			<stop  offset="1" style="stop-color:#000000"/>
		</linearGradient>
		<path class="st0" d="M238.86,41.95c2.16,1.13,3.84,2.71,5.05,4.75c1.21,2.04,1.82,4.36,1.82,6.96c0,2.6-0.48,4.65-1.43,6.13
			c-0.96,1.49-2.29,2.23-4,2.23c-0.98,0-1.79-0.25-2.43-0.75c-0.64-0.5-1.05-1.22-1.24-2.15c-0.61,0.94-1.41,1.65-2.4,2.15
			c-0.99,0.5-2.12,0.75-3.4,0.75c-1.42,0-2.71-0.34-3.85-1.01c-1.14-0.67-2.03-1.6-2.67-2.79c-0.64-1.19-0.96-2.54-0.96-4.04
			c0-1.49,0.32-2.82,0.96-4.01c0.64-1.19,1.53-2.12,2.67-2.78c1.14-0.66,2.42-0.99,3.85-0.99c1.18,0,2.25,0.22,3.2,0.66
			c0.96,0.44,1.75,1.08,2.38,1.94v-2.47h2.66v10.99c0,0.75,0.16,1.31,0.49,1.66c0.33,0.36,0.74,0.53,1.25,0.53
			c0.9,0,1.59-0.52,2.09-1.57c0.5-1.05,0.75-2.53,0.75-4.44c0-2.26-0.51-4.25-1.53-5.97c-1.02-1.72-2.45-3.06-4.29-4.01
			c-1.84-0.96-3.95-1.43-6.33-1.43c-2.4,0-4.52,0.5-6.36,1.5c-1.84,1-3.27,2.39-4.29,4.18c-1.02,1.79-1.53,3.84-1.53,6.13
			c0,2.32,0.5,4.38,1.51,6.17c1.01,1.79,2.42,3.19,4.24,4.2c1.82,1.01,3.92,1.51,6.3,1.51c1,0,2.01-0.11,3.05-0.34
			c1.04-0.22,1.98-0.56,2.84-1.01l0.67,1.95c-0.9,0.47-1.93,0.82-3.11,1.07c-1.18,0.24-2.33,0.37-3.45,0.37
			c-2.79,0-5.26-0.6-7.43-1.79c-2.17-1.19-3.85-2.84-5.05-4.96c-1.2-2.12-1.8-4.51-1.8-7.17c0-2.67,0.61-5.05,1.82-7.14
			c1.21-2.1,2.91-3.73,5.1-4.91c2.19-1.18,4.69-1.77,7.49-1.77C234.25,40.26,236.7,40.83,238.86,41.95z M233.93,58.97
			c0.78-0.45,1.4-1.08,1.86-1.91c0.46-0.82,0.69-1.79,0.69-2.88c0-1.1-0.23-2.06-0.69-2.88s-1.08-1.45-1.86-1.89
			c-0.78-0.44-1.67-0.66-2.67-0.66c-1.55,0-2.8,0.49-3.75,1.48c-0.96,0.99-1.43,2.3-1.43,3.95c0,1.65,0.48,2.97,1.45,3.97
			c0.97,1,2.21,1.5,3.74,1.5C232.26,59.64,233.15,59.42,233.93,58.97z"/>
		<linearGradient id="SVGID_2_" gradientUnits="userSpaceOnUse" x1="272.5539" y1="42.6516" x2="272.5539" y2="139.3674">
			<stop  offset="0" style="stop-color:#BA0000"/>
			<stop  offset="0.4851" style="stop-color:#5F0E15"/>
			<stop  offset="1" style="stop-color:#000000"/>
		</linearGradient>
		<path style="fill:url(#SVGID_2_);" d="M260.58,45.57h2.45v12.86c0,0.03,0,0.06,0,0.09v0.24c0,1,0.57,2.29,1.6,2.6
			c0.15,0.04,0.3,0.07,0.47,0.07h6.84h1.23h6.84c0.16,0,0.32-0.02,0.47-0.07c1.03-0.31,1.6-1.59,1.6-2.6v-0.25c0-0.03,0-0.06,0-0.08
			l0-12.86h2.46v13.19c0,2.82-2.04,5.12-4.52,5.12h-6.84h-1.23h-6.84c-2.49,0-4.52-2.31-4.52-5.12V45.57z"/>
		<linearGradient id="SVGID_3_" gradientUnits="userSpaceOnUse" x1="306.2768" y1="42.6516" x2="306.2768" y2="139.3674">
			<stop  offset="0" style="stop-color:#BA0000"/>
			<stop  offset="0.4851" style="stop-color:#5F0E15"/>
			<stop  offset="1" style="stop-color:#000000"/>
		</linearGradient>
		<path style="fill:url(#SVGID_3_);" d="M295.23,48.09c-0.1-0.01-0.2-0.03-0.31-0.04v15.83h-2.45V45.57h2.08
			c2.76,0.09,4.86,1.28,6.03,4.21l4.47,11.17c0.19,0.47,0.59,0.76,1.04,0.76h0.37c0.46,0,0.86-0.29,1.05-0.76l4.47-11.17
			c1.18-2.94,3.28-4.11,6.05-4.21l2.06,0v18.32h-2.45V48.06c-0.11,0.01-0.22,0.02-0.32,0.04c-1.49,0.23-2.41,1-3.05,2.59
			l-4.47,11.17c-0.32,0.79-1.27,2.02-2.21,2.02h-2.6c-0.94,0-1.89-1.23-2.21-2.02l-4.47-11.17
			C297.66,49.09,296.74,48.31,295.23,48.09z"/>
		<linearGradient id="SVGID_4_" gradientUnits="userSpaceOnUse" x1="339.452" y1="42.6516" x2="339.452" y2="139.3674">
			<stop  offset="0" style="stop-color:#BA0000"/>
			<stop  offset="0.4851" style="stop-color:#5F0E15"/>
			<stop  offset="1" style="stop-color:#000000"/>
		</linearGradient>
		<path style="fill:url(#SVGID_4_);" d="M328,63.88V45.57h3.32c1.94,0,3.6,0.88,4.85,2.56l8.45,11.41l0.24,0.33
			c0.73,0.98,1.63,1.57,2.87,1.57h0.72v-0.25V45.57h2.46v18.32h-3.32c-1.94,0-3.6-0.88-4.85-2.56l-8.45-11.41
			c0-0.01-0.01-0.01-0.01-0.02l-0.23-0.31c-0.73-0.98-1.63-1.57-2.87-1.57h-0.72v0.25v15.61H328z"/>
	</g>
</g>
</svg>
