<?xml version="1.0" encoding="utf-8"?>
<!-- Generator: Adobe Illustrator 23.0.2, SVG Export Plug-In . SVG Version: 6.00 Build 0)  -->
<svg version="1.1" id="Layer_1" xmlns="http://www.w3.org/2000/svg" xmlns:xlink="http://www.w3.org/1999/xlink" x="0px" y="0px"
	 viewBox="0 0 512 512" style="enable-background:new 0 0 512 512;" xml:space="preserve">
<style type="text/css">
	.st0{fill:url(#SVGID_1_);}
	.st1{fill:none;stroke:#000000;stroke-width:9;stroke-miterlimit:10;}
	.st2{fill:none;stroke:#ED1C24;stroke-width:9;stroke-miterlimit:10;}
	.st3{fill:#FFFFFF;}
	.st4{fill:none;stroke:#0071BC;stroke-width:5;stroke-linecap:round;stroke-miterlimit:10;}
	.st5{fill:none;stroke:url(#SVGID_2_);stroke-width:5;stroke-miterlimit:10;}
	.st6{fill:none;stroke:url(#SVGID_3_);stroke-width:5;stroke-miterlimit:10;}
	.st7{fill:none;stroke:url(#SVGID_4_);stroke-width:5;stroke-miterlimit:10;}
	.st8{fill:none;stroke:url(#SVGID_5_);stroke-width:5;stroke-miterlimit:10;}
	.st9{fill:none;stroke:url(#SVGID_6_);stroke-width:5;stroke-miterlimit:10;}
	.st10{fill:url(#SVGID_7_);}
	.st11{fill:url(#SVGID_8_);}
	.st12{fill:url(#SVGID_9_);}
	.st13{fill:url(#SVGID_10_);}
	.st14{fill:#330000;}
	.st15{fill:url(#SVGID_11_);}
	.st16{fill:url(#SVGID_12_);}
	.st17{fill:url(#SVGID_13_);}
	.st18{fill:url(#SVGID_14_);}
	.st19{fill:url(#SVGID_15_);}
	.st20{fill:url(#SVGID_16_);}
	.st21{fill:url(#SVGID_17_);}
	.st22{fill:url(#SVGID_18_);}
	.st23{fill:url(#SVGID_19_);}
	.st24{fill:url(#SVGID_20_);}
	.st25{fill:url(#SVGID_21_);}
	.st26{fill:url(#SVGID_22_);}
	.st27{fill:url(#SVGID_23_);}
	.st28{fill:url(#SVGID_24_);}
	.st29{fill:url(#SVGID_25_);}
	.st30{fill:url(#SVGID_26_);}
	.st31{fill:url(#SVGID_27_);}
	.st32{fill:url(#SVGID_28_);}
	.st33{fill:url(#SVGID_29_);}
	.st34{fill:url(#SVGID_30_);}
	.st35{fill:url(#SVGID_31_);}
	.st36{fill:url(#SVGID_32_);}
	.st37{fill:url(#SVGID_33_);}
	.st38{fill:url(#SVGID_34_);}
	.st39{fill:url(#SVGID_35_);}
	.st40{fill:url(#SVGID_36_);}
	.st41{fill:url(#SVGID_37_);}
	.st42{fill:url(#SVGID_38_);}
	.st43{fill:url(#SVGID_39_);}
	.st44{fill:url(#SVGID_40_);}
	.st45{fill:url(#SVGID_41_);}
	.st46{fill:url(#SVGID_42_);}
	.st47{fill:url(#SVGID_43_);}
	.st48{fill:url(#SVGID_44_);}
	.st49{fill:url(#SVGID_45_);}
	.st50{fill:url(#SVGID_46_);}
	.st51{fill:url(#SVGID_47_);}
	.st52{fill:url(#SVGID_48_);stroke:url(#SVGID_49_);stroke-miterlimit:10;}
	.st53{fill:url(#SVGID_50_);}
	.st54{fill:url(#SVGID_51_);}
	.st55{fill:url(#SVGID_52_);}
	.st56{fill:url(#SVGID_53_);}
	.st57{fill:url(#SVGID_54_);}
	.st58{fill:url(#SVGID_55_);}
	.st59{fill:url(#SVGID_56_);}
	.st60{fill:url(#SVGID_57_);}
	.st61{fill:url(#SVGID_58_);}
	.st62{fill:url(#SVGID_59_);}
	.st63{fill:url(#SVGID_60_);}
	.st64{fill:url(#SVGID_61_);}
	.st65{fill:url(#SVGID_62_);}
	.st66{fill:url(#SVGID_63_);}
	.st67{fill:url(#SVGID_64_);}
	.st68{fill:url(#SVGID_65_);}
	.st69{fill:url(#SVGID_66_);}
	.st70{fill:url(#SVGID_67_);}
	.st71{fill:url(#SVGID_68_);}
	.st72{fill:url(#SVGID_69_);}
	.st73{fill:url(#SVGID_70_);}
	.st74{fill:url(#SVGID_71_);}
	.st75{fill:url(#SVGID_72_);}
	.st76{fill:url(#SVGID_73_);}
	.st77{fill:url(#SVGID_74_);}
	.st78{fill:url(#SVGID_75_);}
	.st79{fill:url(#SVGID_76_);}
	.st80{fill:url(#SVGID_77_);}
	.st81{fill:url(#SVGID_78_);}
	.st82{fill:url(#SVGID_79_);}
	.st83{fill:url(#SVGID_80_);}
	.st84{fill:url(#SVGID_81_);}
	.st85{fill:url(#SVGID_82_);}
	.st86{fill:url(#SVGID_83_);}
	.st87{fill:url(#SVGID_84_);}
	.st88{fill:url(#SVGID_85_);}
	.st89{fill:url(#SVGID_86_);}
	.st90{fill:url(#SVGID_87_);}
	.st91{fill:url(#SVGID_88_);}
	.st92{fill:url(#SVGID_89_);}
	.st93{fill:url(#SVGID_90_);}
	.st94{fill:url(#SVGID_91_);}
	.st95{fill:url(#SVGID_92_);}
	.st96{fill:url(#SVGID_93_);}
	.st97{fill:url(#SVGID_94_);}
	.st98{fill:url(#SVGID_95_);}
	.st99{fill:url(#SVGID_96_);}
	.st100{fill:url(#SVGID_97_);}
	.st101{fill:url(#SVGID_98_);}
	.st102{fill:url(#SVGID_99_);}
	.st103{fill:url(#SVGID_100_);}
	.st104{fill:url(#SVGID_101_);}
	.st105{fill:url(#SVGID_102_);}
	.st106{fill:url(#SVGID_103_);}
	.st107{fill:url(#SVGID_104_);}
	.st108{fill:url(#SVGID_105_);}
	.st109{fill:url(#SVGID_106_);}
	.st110{fill:url(#SVGID_107_);}
	.st111{fill:url(#SVGID_108_);}
	.st112{fill:url(#SVGID_109_);}
	.st113{fill:url(#SVGID_110_);}
	.st114{fill:url(#SVGID_111_);}
	.st115{fill:url(#SVGID_112_);}
	.st116{fill:url(#SVGID_113_);}
	.st117{fill:url(#SVGID_114_);}
	.st118{fill:url(#SVGID_115_);}
	.st119{fill:none;stroke:#000000;stroke-width:6;stroke-miterlimit:10;}
	.st120{fill:#FFFFFF;stroke:#000000;stroke-width:6;stroke-miterlimit:10;}
	.st121{fill:url(#SVGID_116_);}
	.st122{fill:url(#SVGID_117_);}
	.st123{fill:url(#SVGID_118_);}
	.st124{fill:url(#SVGID_119_);}
	.st125{fill:url(#SVGID_120_);}
	.st126{fill:url(#SVGID_121_);}
	.st127{fill:url(#SVGID_122_);}
	.st128{fill:url(#SVGID_123_);}
	.st129{fill:url(#SVGID_124_);}
	.st130{fill:url(#SVGID_125_);}
	.st131{fill:url(#SVGID_126_);}
	.st132{fill:url(#SVGID_127_);}
	.st133{fill:url(#SVGID_128_);}
	.st134{fill:url(#SVGID_129_);}
	.st135{fill:url(#SVGID_130_);}
	.st136{fill:url(#SVGID_131_);}
	.st137{fill:url(#SVGID_132_);}
	.st138{fill:url(#SVGID_133_);}
	.st139{fill:url(#SVGID_134_);}
	.st140{fill:url(#SVGID_135_);}
	.st141{fill:url(#SVGID_136_);}
	.st142{fill:url(#SVGID_137_);}
	.st143{fill:url(#SVGID_138_);}
	.st144{fill:url(#SVGID_139_);}
	.st145{fill:url(#SVGID_140_);}
	.st146{fill:url(#SVGID_141_);}
	.st147{fill:url(#SVGID_142_);}
	.st148{fill:url(#SVGID_143_);}
	.st149{fill:url(#SVGID_144_);}
	.st150{fill:url(#SVGID_145_);}
	.st151{fill:url(#SVGID_146_);}
	.st152{fill:url(#SVGID_147_);}
	.st153{fill:url(#SVGID_148_);}
	.st154{fill:url(#SVGID_149_);}
	.st155{fill:url(#SVGID_150_);}
	.st156{fill:url(#SVGID_151_);}
	.st157{fill:url(#SVGID_152_);}
	.st158{fill:url(#SVGID_153_);}
	.st159{fill:url(#SVGID_154_);}
	.st160{fill:url(#SVGID_155_);}
	.st161{fill:url(#SVGID_156_);}
	.st162{fill:url(#SVGID_157_);}
	.st163{fill:url(#SVGID_158_);}
	.st164{fill:url(#SVGID_159_);}
	.st165{fill:url(#SVGID_160_);}
	.st166{fill:url(#SVGID_161_);}
	.st167{fill:url(#SVGID_162_);}
	.st168{fill:url(#SVGID_163_);}
	.st169{fill:url(#SVGID_164_);}
	.st170{fill:url(#SVGID_165_);}
	.st171{fill:url(#SVGID_166_);}
	.st172{fill:url(#SVGID_167_);}
	.st173{fill:url(#SVGID_168_);}
	.st174{fill:url(#SVGID_169_);}
	.st175{fill:url(#SVGID_170_);}
	.st176{fill:url(#SVGID_171_);}
	.st177{fill:url(#SVGID_172_);}
	.st178{fill:url(#SVGID_173_);}
	.st179{fill:url(#SVGID_174_);}
	.st180{fill:url(#SVGID_175_);}
	.st181{fill:url(#SVGID_176_);}
	.st182{fill:url(#SVGID_177_);}
	.st183{fill:url(#SVGID_178_);}
	.st184{fill:url(#SVGID_179_);}
	.st185{fill:url(#SVGID_180_);}
	.st186{fill:url(#SVGID_181_);}
	.st187{fill:url(#SVGID_182_);}
	.st188{fill:url(#SVGID_183_);}
	.st189{fill:url(#SVGID_184_);}
	.st190{fill:url(#SVGID_185_);}
	.st191{fill:url(#SVGID_186_);}
	.st192{fill:url(#SVGID_187_);}
	.st193{fill:url(#SVGID_188_);}
	.st194{fill:url(#SVGID_189_);}
	.st195{fill:url(#SVGID_190_);}
	.st196{fill:url(#SVGID_191_);}
	.st197{fill:url(#SVGID_192_);}
	.st198{fill:url(#SVGID_193_);}
	.st199{fill:url(#SVGID_194_);}
	.st200{fill:url(#SVGID_195_);}
	.st201{fill:url(#SVGID_196_);}
	.st202{fill:url(#SVGID_197_);}
	.st203{fill:url(#SVGID_198_);}
	.st204{fill:url(#SVGID_199_);}
	.st205{fill:url(#SVGID_200_);}
	.st206{fill:url(#SVGID_201_);}
	.st207{fill:#8E001B;}
</style>
<g>
	<g>
		<g>
			<g>
				<g>
					<g>
						<linearGradient id="SVGID_1_" gradientUnits="userSpaceOnUse" x1="96.7546" y1="304.1036" x2="671.9282" y2="304.1036">
							<stop  offset="0" style="stop-color:#BA0000"/>
							<stop  offset="0.4851" style="stop-color:#5F0E15"/>
							<stop  offset="1" style="stop-color:#000000"/>
						</linearGradient>
						<path class="st0" d="M364.05,296.51c-4.19,0-7.59,3.4-7.59,7.59c0,4.19,3.4,7.59,7.59,7.59c4.19,0,7.59-3.4,7.59-7.59
							C371.64,299.91,368.24,296.51,364.05,296.51z"/>
						<linearGradient id="SVGID_2_" gradientUnits="userSpaceOnUse" x1="96.7546" y1="113.2922" x2="671.9282" y2="113.2922">
							<stop  offset="0" style="stop-color:#BA0000"/>
							<stop  offset="0.4851" style="stop-color:#5F0E15"/>
							<stop  offset="1" style="stop-color:#000000"/>
						</linearGradient>
						<path style="fill:url(#SVGID_2_);" d="M293.73,101.8c-6.36,0-11.5,5.14-11.5,11.5c0,6.34,5.14,11.48,11.5,11.48
							c6.34,0,11.5-5.14,11.5-11.48C305.23,106.94,300.07,101.8,293.73,101.8z M293.73,117.32c-2.23,0-4.03-1.8-4.03-4.02
							c0-2.23,1.8-4.03,4.03-4.03c2.21,0,4.02,1.8,4.02,4.03C297.74,115.52,295.94,117.32,293.73,117.32z"/>
						<linearGradient id="SVGID_3_" gradientUnits="userSpaceOnUse" x1="96.7546" y1="196.7219" x2="671.9282" y2="196.7219">
							<stop  offset="0" style="stop-color:#BA0000"/>
							<stop  offset="0.4851" style="stop-color:#5F0E15"/>
							<stop  offset="1" style="stop-color:#000000"/>
						</linearGradient>
						<path style="fill:url(#SVGID_3_);" d="M423.04,182.76c-7.69,0-13.94,6.25-13.94,13.96c0,7.71,6.25,13.96,13.94,13.96
							c7.71,0,13.96-6.25,13.96-13.96C437,189.01,430.75,182.76,423.04,182.76z M423.04,201.75c-2.78,0-5.03-2.25-5.03-5.03
							c0-2.78,2.25-5.03,5.03-5.03c2.78,0,5.03,2.25,5.03,5.03C428.07,199.5,425.82,201.75,423.04,201.75z"/>
						<linearGradient id="SVGID_4_" gradientUnits="userSpaceOnUse" x1="96.7546" y1="392.5159" x2="671.9282" y2="392.5159">
							<stop  offset="0" style="stop-color:#BA0000"/>
							<stop  offset="0.4851" style="stop-color:#5F0E15"/>
							<stop  offset="1" style="stop-color:#000000"/>
						</linearGradient>
						<circle style="fill:url(#SVGID_4_);" cx="287.94" cy="392.52" r="11.85"/>
					</g>
				</g>
				<g>
					<linearGradient id="SVGID_5_" gradientUnits="userSpaceOnUse" x1="96.7546" y1="308.6723" x2="671.9282" y2="308.6723">
						<stop  offset="0" style="stop-color:#BA0000"/>
						<stop  offset="0.4851" style="stop-color:#5F0E15"/>
						<stop  offset="1" style="stop-color:#000000"/>
					</linearGradient>
					<path style="fill:url(#SVGID_5_);" d="M142.3,393.27l-7.6-0.84c-1-0.11-2.05-0.24-3.08-0.44
						c-23.45-4.44-39.59-24.97-38.35-48.81c0.41-8.22,2.99-16.05,7.67-23.25c1.17-1.77,1.61-3.27,1.32-4.46
						c-0.36-1.5-1.98-2.72-3.29-3.47c-20.91-12.13-29.33-36.23-20.49-58.6c7.02-17.81,24.2-29.32,43.77-29.32
						c2.3,0,4.17,1.87,4.17,4.17c0,2.3-1.87,4.17-4.17,4.17c-16.12,0-30.26,9.44-36.01,24.05c-7.29,18.45-0.34,38.32,16.92,48.33
						c3.95,2.29,6.38,5.24,7.21,8.75c0.84,3.51,0.01,7.2-2.45,10.95c-3.85,5.93-5.98,12.37-6.32,19.11
						c-1.02,19.64,12.27,36.54,31.6,40.2c0.62,0.12,1.31,0.21,2.03,0.29c0.47-3.14,0.99-6.23,1.97-9.35
						c8.02-25.64,25.59-41.08,52.2-45.88c2.92-0.55,5.8-0.63,8.5-0.66h0.33c7.65,0,13.21,5.32,13.21,12.65
						c0,7.29-5.58,12.66-13.27,12.78c-0.02,0-0.04,0-0.07,0c-2.27,0-4.13-1.82-4.17-4.1c-0.03-2.3,1.8-4.2,4.1-4.23
						c2.45-0.04,5.07-1.22,5.07-4.44c0-3.18-2.52-4.31-4.87-4.31h-0.28c-2.38,0.03-4.75,0.09-7.04,0.52
						c-23.35,4.21-38.73,17.72-45.76,40.17c-0.84,2.68-1.3,5.53-1.73,8.47L142.3,393.27z"/>
				</g>
				<g>
					<linearGradient id="SVGID_6_" gradientUnits="userSpaceOnUse" x1="96.7546" y1="196.3279" x2="671.9282" y2="196.3279">
						<stop  offset="0" style="stop-color:#BA0000"/>
						<stop  offset="0.4851" style="stop-color:#5F0E15"/>
						<stop  offset="1" style="stop-color:#000000"/>
					</linearGradient>
					<path style="fill:url(#SVGID_6_);" d="M173.29,283.77c-7.05,0-12.5-5.73-12.67-13.33c-0.28-10.86-4.21-19.84-12.04-27.44
						c-1.65-1.6-1.69-4.24-0.08-5.89c1.61-1.65,4.24-1.69,5.89-0.08c9.46,9.19,14.22,20.05,14.56,33.21
						c0.07,3.01,1.89,5.19,4.34,5.19c0.09,0,0.18,0,0.28-0.01c2.69-0.28,4.22-2.18,4.18-5.08c-0.18-11.22-3.41-21.54-9.6-30.64
						c-10.44-15.3-27.69-24.43-46.16-24.43c-10.24,0-20.29,2.83-29.07,8.18l-8.37,5.11l-3.23-9.26c-0.21-0.59-0.39-1.2-0.56-1.84
						c-2.7-9.3-1.54-19.11,3.28-27.59c4.85-8.51,12.74-14.55,22.22-17c4.19-1.06,5.13-2.57,4.2-6.71
						c-3.09-14.02,0.28-28.46,9.24-39.64c9.01-11.2,22.36-17.62,36.63-17.62c0.78,0,1.58,0.02,2.41,0.07l6.32,0.35l1.05,6.24
						c3.51,20.8,21.01,36.53,41.63,37.46l0.3,0l0.11,0c0.56,0.02,0.86,0.02,1.2,0.03l0.21,0c2.26-0.16,4.28,1.59,4.43,3.89
						c0.15,2.3-1.59,4.28-3.89,4.43c-0.27,0.02-0.53,0.01-0.78,0.02c-0.41,0-0.81-0.01-1.4-0.04l-0.31,0l-0.12,0
						c-24.47-1.03-45.25-19.54-49.55-44.07c-0.55-0.03-1.09-0.04-1.62-0.04c-11.73,0-22.72,5.29-30.13,14.5
						c-7.37,9.2-10.14,21.08-7.6,32.61c1.92,8.53-1.73,14.43-10.27,16.6c-7.27,1.88-13.33,6.52-17.05,13.05
						c-3.69,6.5-4.58,14.03-2.51,21.19c0.09,0.32,0.17,0.61,0.26,0.88c9.98-5.98,21.36-9.13,32.96-9.13
						c21.22,0,41.05,10.5,53.05,28.08c7.13,10.48,10.84,22.33,11.05,35.22c0.08,7.22-4.67,12.75-11.54,13.47
						C174.18,283.75,173.72,283.77,173.29,283.77z"/>
				</g>
				<path d="M243.37,179.54v-8.01h105.9l18.42-22.6l-0.43-0.87c-0.69-1.39-1.06-2.93-1.06-4.45c0-5.51,4.49-10,10-10
					c0.38,0,0.76,0.02,1.15,0.06c4.58,0.51,8.28,4.2,8.79,8.79c0.32,2.9-0.56,5.67-2.48,7.82c-1.89,2.12-4.61,3.33-7.45,3.33
					c-0.37,0-0.74-0.02-1.11-0.05l-0.79-0.07l-21.24,26.05H243.37z M376.45,138.43c-2.62,0-4.75,2.12-4.75,4.73
					c0,2.62,2.13,4.75,4.75,4.75c2.62,0,4.75-2.13,4.75-4.75C381.2,140.55,379.07,138.43,376.45,138.43z"/>
				<linearGradient id="SVGID_7_" gradientUnits="userSpaceOnUse" x1="243.3651" y1="355.4668" x2="386.1896" y2="355.4668">
					<stop  offset="0" style="stop-color:#BA0000"/>
					<stop  offset="0.4851" style="stop-color:#5F0E15"/>
					<stop  offset="1" style="stop-color:#000000"/>
				</linearGradient>
				<path class="st10" d="M376.17,378.42c-0.34,0-0.68-0.02-1.02-0.05c-4.61-0.45-8.34-4.14-8.88-8.75
					c-0.23-1.94,0.11-3.89,0.98-5.63l0.43-0.87l-18.42-22.62h-105.9v-7.99h109.69l21.27,26.09l0.84-0.12
					c0.34-0.05,0.69-0.06,1.03-0.06c5.51,0,10,4.49,10,10c0,2.67-1.04,5.18-2.93,7.07C381.37,377.38,378.85,378.42,376.17,378.42z
					 M376.11,361.61c-3.78,0-6.85,3.07-6.85,6.85c0,3.79,3.07,6.87,6.85,6.87c3.79,0,6.87-3.08,6.87-6.87
					C382.98,364.68,379.9,361.61,376.11,361.61z"/>
				<path d="M292.61,296.99c-2.62,0-5.11-1.31-6.66-3.51l-0.45-0.64h-42.13v-8.01h42.14l0.45-0.64c1.53-2.2,4.03-3.51,6.69-3.51
					c2.22,0,4.29,0.88,5.84,2.47c1.55,1.59,2.37,3.69,2.31,5.91c-0.11,4.31-3.72,7.86-8.04,7.92L292.61,296.99z"/>
				<linearGradient id="SVGID_8_" gradientUnits="userSpaceOnUse" x1="243.3651" y1="246.5666" x2="378.5447" y2="246.5666">
					<stop  offset="0" style="stop-color:#BA0000"/>
					<stop  offset="0.4851" style="stop-color:#5F0E15"/>
					<stop  offset="1" style="stop-color:#000000"/>
				</linearGradient>
				<path class="st11" d="M375.07,245.07c-2.37-2.47-5.55-3.82-8.97-3.82c-5.08,0-9.61,3.05-11.54,7.77l-0.38,0.93h-42.04
					l-18.73-22.98h-50.04v8.01h46.25l18.72,22.97h46.02l0.4,0.88c2.01,4.45,6.45,7.33,11.32,7.33l0.21,0
					c6.48-0.12,11.98-5.47,12.24-11.94C378.67,250.79,377.44,247.54,375.07,245.07z M366.49,259.75c-3.11,0-5.63-2.52-5.63-5.63
					s2.52-5.63,5.63-5.63c3.11,0,5.63,2.52,5.63,5.63S369.6,259.75,366.49,259.75z"/>
			</g>
		</g>
	</g>
	<g>
		<linearGradient id="SVGID_9_" gradientUnits="userSpaceOnUse" x1="96.7546" y1="256" x2="671.9282" y2="256">
			<stop  offset="0" style="stop-color:#BA0000"/>
			<stop  offset="0.4851" style="stop-color:#5F0E15"/>
			<stop  offset="1" style="stop-color:#000000"/>
		</linearGradient>
		<path class="st12" d="M199.22,439.18c-22.17,0-41.16-14.92-46.19-36.27c-3.25-13.85-0.08-28.25,8.71-39.52
			c1.42-1.81,4.03-2.14,5.85-0.72c1.82,1.41,2.14,4.03,0.72,5.85c-7.23,9.27-9.84,21.11-7.17,32.49
			c4.14,17.57,19.8,29.85,38.08,29.85c1.57,0,3.16-0.09,4.72-0.28c18.76-2.14,33.46-18.81,33.47-37.96V108.42
			c0-7.66-3.3-15.02-9.05-20.19c-5.91-5.31-13.54-7.77-21.52-6.92c-12.01,1.33-21.59,10.44-23.83,22.67
			c-2.12,11.64,3.87,23.56,14.58,28.98c3.89,1.94,7.96,2.93,12.4,3.01c2.3,0.04,4.14,1.94,4.1,4.24c-0.04,2.3-2,4.16-4.24,4.1
			c-5.72-0.1-10.95-1.37-16-3.89c-14-7.09-21.82-22.68-19.03-37.93c2.91-15.88,15.41-27.71,31.13-29.45
			c10.21-1.09,20.42,2.2,27.99,9.01c7.51,6.75,11.81,16.37,11.81,26.39v284.19c-0.02,23.32-17.97,43.63-40.85,46.24
			C203.03,439.07,201.11,439.18,199.22,439.18z"/>
	</g>
</g>
</svg>
