<?xml version="1.0" encoding="utf-8"?>
<!-- Generator: Adobe Illustrator 23.0.2, SVG Export Plug-In . SVG Version: 6.00 Build 0)  -->
<svg version="1.1" id="Layer_1" xmlns="http://www.w3.org/2000/svg" xmlns:xlink="http://www.w3.org/1999/xlink" x="0px" y="0px"
	 viewBox="0 0 494 234.82" style="enable-background:new 0 0 494 234.82;" xml:space="preserve">
<style type="text/css">
	.st0{fill:url(#SVGID_1_);}
	.st1{fill:none;stroke:#000000;stroke-width:9;stroke-miterlimit:10;}
	.st2{fill:none;stroke:#ED1C24;stroke-width:9;stroke-miterlimit:10;}
	.st3{fill:#FFFFFF;}
	.st4{fill:none;stroke:#0071BC;stroke-width:5;stroke-linecap:round;stroke-miterlimit:10;}
	.st5{fill:none;stroke:url(#SVGID_2_);stroke-width:5;stroke-miterlimit:10;}
	.st6{fill:none;stroke:url(#SVGID_3_);stroke-width:5;stroke-miterlimit:10;}
	.st7{fill:none;stroke:url(#SVGID_4_);stroke-width:5;stroke-miterlimit:10;}
	.st8{fill:none;stroke:url(#SVGID_5_);stroke-width:5;stroke-miterlimit:10;}
	.st9{fill:none;stroke:url(#SVGID_6_);stroke-width:5;stroke-miterlimit:10;}
	.st10{fill:url(#SVGID_7_);}
	.st11{fill:url(#SVGID_8_);}
	.st12{fill:url(#SVGID_9_);}
	.st13{fill:url(#SVGID_10_);}
	.st14{fill:#330000;}
	.st15{fill:url(#SVGID_11_);}
	.st16{fill:url(#SVGID_12_);}
	.st17{fill:url(#SVGID_13_);}
	.st18{fill:url(#SVGID_14_);}
	.st19{fill:url(#SVGID_15_);}
	.st20{fill:url(#SVGID_16_);}
	.st21{fill:url(#SVGID_17_);}
	.st22{fill:url(#SVGID_18_);}
	.st23{fill:url(#SVGID_19_);}
	.st24{fill:url(#SVGID_20_);}
	.st25{fill:url(#SVGID_21_);}
	.st26{fill:url(#SVGID_22_);}
	.st27{fill:url(#SVGID_23_);}
	.st28{fill:url(#SVGID_24_);}
	.st29{fill:url(#SVGID_25_);}
	.st30{fill:url(#SVGID_26_);}
	.st31{fill:url(#SVGID_27_);}
	.st32{fill:url(#SVGID_28_);}
	.st33{fill:url(#SVGID_29_);}
	.st34{fill:url(#SVGID_30_);}
	.st35{fill:url(#SVGID_31_);}
	.st36{fill:url(#SVGID_32_);}
	.st37{fill:url(#SVGID_33_);}
	.st38{fill:url(#SVGID_34_);}
	.st39{fill:url(#SVGID_35_);}
	.st40{fill:url(#SVGID_36_);}
	.st41{fill:url(#SVGID_37_);}
	.st42{fill:url(#SVGID_38_);}
	.st43{fill:url(#SVGID_39_);}
	.st44{fill:url(#SVGID_40_);}
	.st45{fill:url(#SVGID_41_);}
	.st46{fill:url(#SVGID_42_);}
	.st47{fill:url(#SVGID_43_);}
	.st48{fill:url(#SVGID_44_);}
	.st49{fill:url(#SVGID_45_);}
	.st50{fill:url(#SVGID_46_);}
	.st51{fill:url(#SVGID_47_);}
	.st52{fill:url(#SVGID_48_);stroke:url(#SVGID_49_);stroke-miterlimit:10;}
	.st53{fill:url(#SVGID_50_);}
	.st54{fill:url(#SVGID_51_);}
	.st55{fill:url(#SVGID_52_);}
	.st56{fill:url(#SVGID_53_);}
	.st57{fill:url(#SVGID_54_);}
	.st58{fill:url(#SVGID_55_);}
	.st59{fill:url(#SVGID_56_);}
	.st60{fill:url(#SVGID_57_);}
	.st61{fill:url(#SVGID_58_);}
	.st62{fill:url(#SVGID_59_);}
	.st63{fill:url(#SVGID_60_);}
	.st64{fill:url(#SVGID_61_);}
	.st65{fill:url(#SVGID_62_);}
	.st66{fill:url(#SVGID_63_);}
	.st67{fill:url(#SVGID_64_);}
	.st68{fill:url(#SVGID_65_);}
	.st69{fill:url(#SVGID_66_);}
	.st70{fill:url(#SVGID_67_);}
	.st71{fill:url(#SVGID_68_);}
	.st72{fill:url(#SVGID_69_);}
	.st73{fill:url(#SVGID_70_);}
	.st74{fill:url(#SVGID_71_);}
	.st75{fill:url(#SVGID_72_);}
	.st76{fill:url(#SVGID_73_);}
	.st77{fill:url(#SVGID_74_);}
	.st78{fill:url(#SVGID_75_);}
	.st79{fill:url(#SVGID_76_);}
	.st80{fill:url(#SVGID_77_);}
	.st81{fill:url(#SVGID_78_);}
	.st82{fill:url(#SVGID_79_);}
	.st83{fill:url(#SVGID_80_);}
	.st84{fill:url(#SVGID_81_);}
	.st85{fill:url(#SVGID_82_);}
	.st86{fill:url(#SVGID_83_);}
	.st87{fill:url(#SVGID_84_);}
	.st88{fill:url(#SVGID_85_);}
	.st89{fill:url(#SVGID_86_);}
	.st90{fill:url(#SVGID_87_);}
	.st91{fill:url(#SVGID_88_);}
	.st92{fill:url(#SVGID_89_);}
	.st93{fill:url(#SVGID_90_);}
	.st94{fill:url(#SVGID_91_);}
	.st95{fill:url(#SVGID_92_);}
	.st96{fill:url(#SVGID_93_);}
	.st97{fill:url(#SVGID_94_);}
	.st98{fill:url(#SVGID_95_);}
	.st99{fill:url(#SVGID_96_);}
	.st100{fill:url(#SVGID_97_);}
	.st101{fill:url(#SVGID_98_);}
	.st102{fill:url(#SVGID_99_);}
	.st103{fill:url(#SVGID_100_);}
	.st104{fill:url(#SVGID_101_);}
	.st105{fill:url(#SVGID_102_);}
	.st106{fill:url(#SVGID_103_);}
	.st107{fill:url(#SVGID_104_);}
	.st108{fill:url(#SVGID_105_);}
	.st109{fill:url(#SVGID_106_);}
	.st110{fill:url(#SVGID_107_);}
	.st111{fill:url(#SVGID_108_);}
	.st112{fill:url(#SVGID_109_);}
	.st113{fill:url(#SVGID_110_);}
	.st114{fill:url(#SVGID_111_);}
	.st115{fill:url(#SVGID_112_);}
	.st116{fill:url(#SVGID_113_);}
	.st117{fill:url(#SVGID_114_);}
	.st118{fill:url(#SVGID_115_);}
	.st119{fill:none;stroke:#000000;stroke-width:6;stroke-miterlimit:10;}
	.st120{fill:#FFFFFF;stroke:#000000;stroke-width:6;stroke-miterlimit:10;}
	.st121{fill:url(#SVGID_116_);}
	.st122{fill:url(#SVGID_117_);}
	.st123{fill:url(#SVGID_118_);}
	.st124{fill:url(#SVGID_119_);}
	.st125{fill:url(#SVGID_120_);}
	.st126{fill:url(#SVGID_121_);}
	.st127{fill:url(#SVGID_122_);}
	.st128{fill:url(#SVGID_123_);}
	.st129{fill:url(#SVGID_124_);}
	.st130{fill:url(#SVGID_125_);}
	.st131{fill:url(#SVGID_126_);}
	.st132{fill:url(#SVGID_127_);}
	.st133{fill:url(#SVGID_128_);}
	.st134{fill:url(#SVGID_129_);}
	.st135{fill:url(#SVGID_130_);}
	.st136{fill:url(#SVGID_131_);}
	.st137{fill:url(#SVGID_132_);}
	.st138{fill:url(#SVGID_133_);}
	.st139{fill:url(#SVGID_134_);}
	.st140{fill:url(#SVGID_135_);}
	.st141{fill:url(#SVGID_136_);}
	.st142{fill:url(#SVGID_137_);}
	.st143{fill:url(#SVGID_138_);}
	.st144{fill:url(#SVGID_139_);}
	.st145{fill:url(#SVGID_140_);}
	.st146{fill:url(#SVGID_141_);}
	.st147{fill:url(#SVGID_142_);}
	.st148{fill:url(#SVGID_143_);}
	.st149{fill:url(#SVGID_144_);}
	.st150{fill:url(#SVGID_145_);}
	.st151{fill:url(#SVGID_146_);}
	.st152{fill:url(#SVGID_147_);}
	.st153{fill:url(#SVGID_148_);}
	.st154{fill:url(#SVGID_149_);}
	.st155{fill:url(#SVGID_150_);}
	.st156{fill:url(#SVGID_151_);}
	.st157{fill:url(#SVGID_152_);}
	.st158{fill:url(#SVGID_153_);}
	.st159{fill:url(#SVGID_154_);}
	.st160{fill:url(#SVGID_155_);}
	.st161{fill:url(#SVGID_156_);}
	.st162{fill:url(#SVGID_157_);}
	.st163{fill:url(#SVGID_158_);}
	.st164{fill:url(#SVGID_159_);}
	.st165{fill:url(#SVGID_160_);}
	.st166{fill:url(#SVGID_161_);}
	.st167{fill:url(#SVGID_162_);}
	.st168{fill:url(#SVGID_163_);}
	.st169{fill:url(#SVGID_164_);}
	.st170{fill:url(#SVGID_165_);}
	.st171{fill:url(#SVGID_166_);}
	.st172{fill:url(#SVGID_167_);}
	.st173{fill:url(#SVGID_168_);}
	.st174{fill:url(#SVGID_169_);}
	.st175{fill:url(#SVGID_170_);}
	.st176{fill:url(#SVGID_171_);}
	.st177{fill:url(#SVGID_172_);}
	.st178{fill:url(#SVGID_173_);}
	.st179{fill:url(#SVGID_174_);}
	.st180{fill:url(#SVGID_175_);}
	.st181{fill:url(#SVGID_176_);}
	.st182{fill:url(#SVGID_177_);}
	.st183{fill:url(#SVGID_178_);}
	.st184{fill:url(#SVGID_179_);}
	.st185{fill:url(#SVGID_180_);}
	.st186{fill:url(#SVGID_181_);}
	.st187{fill:url(#SVGID_182_);}
	.st188{fill:url(#SVGID_183_);}
	.st189{fill:url(#SVGID_184_);}
	.st190{fill:url(#SVGID_185_);}
	.st191{fill:url(#SVGID_186_);}
	.st192{fill:url(#SVGID_187_);}
	.st193{fill:url(#SVGID_188_);}
	.st194{fill:url(#SVGID_189_);}
	.st195{fill:url(#SVGID_190_);}
	.st196{fill:url(#SVGID_191_);}
	.st197{fill:url(#SVGID_192_);}
	.st198{fill:url(#SVGID_193_);}
	.st199{fill:url(#SVGID_194_);}
	.st200{fill:url(#SVGID_195_);}
	.st201{fill:url(#SVGID_196_);}
	.st202{fill:url(#SVGID_197_);}
	.st203{fill:url(#SVGID_198_);}
	.st204{fill:url(#SVGID_199_);}
	.st205{fill:url(#SVGID_200_);}
	.st206{fill:url(#SVGID_201_);}
	.st207{fill:#8E001B;}
</style>
<g>
	<g>
		<path d="M21.92,181.03l-5.02,13.79c-0.18,0.49-0.54,0.79-0.95,0.79h-0.42c-0.41,0-0.77-0.3-0.95-0.79l-5.02-13.79
			c-1.27-3.48-3.55-5.23-6.99-5.35H0v23.08h3.23v-19.51c0.02,0,0.04,0.01,0.07,0.01l0,0c1.6,0.26,2.57,1.17,3.26,3.06l5.02,13.79
			c0.39,1.07,1.52,2.65,2.7,2.65h2.92c1.19,0,2.32-1.58,2.7-2.65l5.02-13.79c0.68-1.86,1.65-2.77,3.24-3.05
			c0.03,0,0.06-0.01,0.09-0.01v19.5h3.23v-23.08l-2.56,0C25.47,175.82,23.18,177.57,21.92,181.03z"/>
		<path d="M49.96,175.68H39.9v23.08h3.23v-19.57h6.77c1.12,0.06,2.05,0.65,2.84,1.82l11.89,17.64l0.07,0.1h4l-13.35-19.82
			C53.97,176.89,52.11,175.76,49.96,175.68z"/>
		<path d="M76.92,182.24v9.96c0,3.62,2.38,6.56,5.31,6.56h19.99v-3.5H82.24c-0.15,0-0.31-0.02-0.45-0.07
			c-1.02-0.34-1.63-1.78-1.63-2.98v-9.96c0-1.2,0.61-2.65,1.63-2.98c0.14-0.05,0.3-0.07,0.45-0.07h19.99v-3.5H82.24
			C79.3,175.68,76.92,178.62,76.92,182.24z"/>
		<rect x="110.65" y="175.68" width="3.23" height="23.08"/>
		<polygon points="133.42,185.47 118.79,185.47 118.79,188.97 133.42,188.97 133.42,198.75 136.65,198.75 136.65,175.68 
			133.42,175.68 		"/>
		<rect x="145.07" y="175.68" width="3.23" height="23.08"/>
		<path d="M179.68,195.25h-0.57c-1.23,0-2.19-0.58-3.03-1.83l-9.76-14.48c-1.44-2.14-3.39-3.26-5.64-3.26h-3.97v23.08h3.23v-19.57
			h0.57c1.23,0,2.19,0.58,3.03,1.83l9.76,14.48c1.44,2.14,3.39,3.26,5.64,3.26h3.97v-23.08h-3.23V195.25z"/>
		<rect x="199.48" y="185.47" width="17.86" height="3.5"/>
		<path d="M191.34,182.24v9.96c0,3.62,2.38,6.56,5.31,6.56h20.68v-3.5h-20.68c-0.15,0-0.31-0.02-0.45-0.07
			c-1.02-0.34-1.63-1.78-1.63-2.98v-9.96c0-1.2,0.61-2.65,1.63-2.98c0.14-0.05,0.3-0.07,0.45-0.07h20.68v-3.5h-20.68
			C193.73,175.68,191.34,178.62,191.34,182.24z"/>
		<path d="M252.39,195.01c-0.07-0.04-0.13-0.09-0.19-0.14c-0.68-0.56-1.1-1.58-1.1-2.67v-16.52h-3.23v16.52
			c0,2.2,0.89,4.24,2.38,5.47c0.16,0.13,0.33,0.25,0.5,0.36c0.75,0.48,1.58,0.73,2.4,0.73h19.33v-3.5h-19.33
			C252.9,195.25,252.65,195.17,252.39,195.01z"/>
		<rect x="289.05" y="185.47" width="17.86" height="3.5"/>
		<path d="M280.91,182.24v9.96c0,3.62,2.38,6.56,5.31,6.56h20.68v-3.5h-20.68c-0.15,0-0.31-0.02-0.45-0.07
			c-1.02-0.34-1.63-1.78-1.63-2.98v-9.96c0-1.2,0.61-2.65,1.63-2.98c0.14-0.05,0.3-0.07,0.45-0.07h20.68v-3.5h-20.68
			C283.3,175.68,280.91,178.62,280.91,182.24z"/>
		<path d="M325.39,175.68h-10.06v23.08h3.23v-19.57h6.77c1.12,0.06,2.05,0.65,2.84,1.82l11.96,17.75h4l-13.36-19.82
			C329.4,176.89,327.53,175.76,325.39,175.68z"/>
		<path d="M378.34,184.62v-2.38c0-3.62-2.38-6.56-5.32-6.56h-20.68v23.08h3.23v-19.57h17.45c1.34,0,2.08,1.81,2.08,3.05v2.38
			c0,1.25-0.74,3.05-2.08,3.05h-12.55v3.5h9.46l4.97,7.58h3.97l-5.02-7.66C376.4,190.6,378.34,187.84,378.34,184.62z"/>
		<path d="M410.07,195.25h-0.57c-1.23,0-2.19-0.58-3.03-1.83l-9.76-14.48c-1.44-2.14-3.39-3.26-5.64-3.26h-3.97v23.08h3.23v-19.57
			h0.57c1.23,0,2.19,0.58,3.03,1.83l9.76,14.48c1.44,2.14,3.39,3.26,5.64,3.26h3.97v-23.08h-3.23V195.25z"/>
		<rect x="421.73" y="175.68" width="3.23" height="23.08"/>
		<path d="M456.34,195.25h-0.57c-1.23,0-2.19-0.58-3.03-1.83l-9.76-14.48c-1.44-2.14-3.39-3.26-5.64-3.26h-3.97v23.08h3.23v-19.57
			h0.57c1.23,0,2.19,0.58,3.03,1.83l9.76,14.48c1.44,2.14,3.39,3.26,5.64,3.26h3.97v-23.08h-3.23V195.25z"/>
		<path d="M472.87,179.25c0.14-0.05,0.3-0.07,0.45-0.07H494v-3.5h-20.68c-2.93,0-5.31,2.94-5.31,6.56v9.96
			c0,3.62,2.38,6.56,5.31,6.56H494v-13.29h-17.86v3.5h14.63v6.28h-17.45c-0.15,0-0.31-0.02-0.45-0.07
			c-1.02-0.34-1.63-1.78-1.63-2.98v-9.96C471.23,181.03,471.84,179.59,472.87,179.25z"/>
	</g>
	<g>
		<g>
			<g>
				<g>
					<g>
						<linearGradient id="SVGID_1_" gradientUnits="userSpaceOnUse" x1="168.0998" y1="99.9651" x2="416.7003" y2="99.9651">
							<stop  offset="0" style="stop-color:#BA0000"/>
							<stop  offset="0.4851" style="stop-color:#5F0E15"/>
							<stop  offset="1" style="stop-color:#000000"/>
						</linearGradient>
						<path class="st0" d="M283.63,96.69c-1.81,0-3.28,1.47-3.28,3.28c0,1.81,1.47,3.28,3.28,3.28c1.81,0,3.28-1.47,3.28-3.28
							C286.91,98.15,285.44,96.69,283.63,96.69z"/>
						<linearGradient id="SVGID_2_" gradientUnits="userSpaceOnUse" x1="168.0998" y1="17.4929" x2="416.7003" y2="17.4929">
							<stop  offset="0" style="stop-color:#BA0000"/>
							<stop  offset="0.4851" style="stop-color:#5F0E15"/>
							<stop  offset="1" style="stop-color:#000000"/>
						</linearGradient>
						<path style="fill:url(#SVGID_2_);" d="M253.23,12.53c-2.75,0-4.97,2.22-4.97,4.97c0,2.74,2.22,4.96,4.97,4.96
							c2.74,0,4.97-2.22,4.97-4.96C258.21,14.75,255.98,12.53,253.23,12.53z M253.23,19.23c-0.97,0-1.74-0.78-1.74-1.74
							c0-0.97,0.78-1.74,1.74-1.74c0.96,0,1.74,0.78,1.74,1.74C254.97,18.45,254.19,19.23,253.23,19.23z"/>
						<linearGradient id="SVGID_3_" gradientUnits="userSpaceOnUse" x1="168.0998" y1="53.5527" x2="416.7003" y2="53.5527">
							<stop  offset="0" style="stop-color:#BA0000"/>
							<stop  offset="0.4851" style="stop-color:#5F0E15"/>
							<stop  offset="1" style="stop-color:#000000"/>
						</linearGradient>
						<path style="fill:url(#SVGID_3_);" d="M309.13,47.52c-3.32,0-6.03,2.7-6.03,6.03c0,3.33,2.7,6.03,6.03,6.03
							c3.33,0,6.03-2.7,6.03-6.03C315.16,50.22,312.46,47.52,309.13,47.52z M309.13,55.73c-1.2,0-2.17-0.97-2.17-2.17
							c0-1.2,0.97-2.17,2.17-2.17s2.17,0.97,2.17,2.17C311.3,54.75,310.33,55.73,309.13,55.73z"/>
						<linearGradient id="SVGID_4_" gradientUnits="userSpaceOnUse" x1="168.0998" y1="138.1785" x2="416.7003" y2="138.1785">
							<stop  offset="0" style="stop-color:#BA0000"/>
							<stop  offset="0.4851" style="stop-color:#5F0E15"/>
							<stop  offset="1" style="stop-color:#000000"/>
						</linearGradient>
						<circle style="fill:url(#SVGID_4_);" cx="250.73" cy="138.18" r="5.12"/>
					</g>
				</g>
				<g>
					<linearGradient id="SVGID_5_" gradientUnits="userSpaceOnUse" x1="168.0998" y1="101.9398" x2="416.7003" y2="101.9398">
						<stop  offset="0" style="stop-color:#BA0000"/>
						<stop  offset="0.4851" style="stop-color:#5F0E15"/>
						<stop  offset="1" style="stop-color:#000000"/>
					</linearGradient>
					<path style="fill:url(#SVGID_5_);" d="M187.78,138.5l-3.28-0.36c-0.43-0.05-0.89-0.1-1.33-0.19
						c-10.14-1.92-17.11-10.79-16.58-21.1c0.18-3.55,1.29-6.94,3.31-10.05c0.5-0.77,0.69-1.41,0.57-1.93
						c-0.15-0.65-0.86-1.17-1.42-1.5c-9.04-5.24-12.68-15.66-8.85-25.33c3.03-7.7,10.46-12.67,18.92-12.67c0.99,0,1.8,0.81,1.8,1.8
						c0,0.99-0.81,1.8-1.8,1.8c-6.97,0-13.08,4.08-15.57,10.39c-3.15,7.97-0.15,16.56,7.31,20.89c1.71,0.99,2.76,2.26,3.12,3.78
						c0.36,1.52,0.01,3.11-1.06,4.73c-1.67,2.56-2.59,5.35-2.73,8.26c-0.44,8.49,5.3,15.79,13.66,17.37
						c0.27,0.05,0.57,0.09,0.88,0.13c0.2-1.36,0.43-2.69,0.85-4.04c3.47-11.08,11.06-17.76,22.56-19.83
						c1.26-0.24,2.51-0.27,3.67-0.29h0.14c3.31,0,5.71,2.3,5.71,5.47c0,3.15-2.41,5.47-5.74,5.52c-0.01,0-0.02,0-0.03,0
						c-0.98,0-1.79-0.79-1.8-1.77c-0.01-0.99,0.78-1.81,1.77-1.83c1.06-0.02,2.19-0.53,2.19-1.92c0-1.37-1.09-1.86-2.11-1.86h-0.12
						c-1.03,0.01-2.05,0.04-3.04,0.23c-10.09,1.82-16.74,7.66-19.78,17.36c-0.36,1.16-0.56,2.39-0.75,3.66L187.78,138.5z"/>
				</g>
				<g>
					<linearGradient id="SVGID_6_" gradientUnits="userSpaceOnUse" x1="168.0998" y1="53.3825" x2="416.7003" y2="53.3825">
						<stop  offset="0" style="stop-color:#BA0000"/>
						<stop  offset="0.4851" style="stop-color:#5F0E15"/>
						<stop  offset="1" style="stop-color:#000000"/>
					</linearGradient>
					<path style="fill:url(#SVGID_6_);" d="M201.18,91.17c-3.05,0-5.4-2.48-5.48-5.76c-0.12-4.69-1.82-8.58-5.2-11.86
						c-0.71-0.69-0.73-1.83-0.04-2.55c0.69-0.71,1.83-0.73,2.55-0.04c4.09,3.97,6.15,8.67,6.29,14.36c0.03,1.3,0.82,2.24,1.87,2.24
						c0.04,0,0.08,0,0.12,0c1.16-0.12,1.82-0.94,1.81-2.2c-0.08-4.85-1.47-9.31-4.15-13.24c-4.51-6.61-11.97-10.56-19.95-10.56
						c-4.43,0-8.77,1.22-12.56,3.54l-3.62,2.21l-1.4-4c-0.09-0.26-0.17-0.52-0.24-0.79c-1.17-4.02-0.67-8.26,1.42-11.93
						c2.09-3.68,5.51-6.29,9.61-7.35c1.81-0.46,2.22-1.11,1.81-2.9c-1.34-6.06,0.12-12.3,3.99-17.13c3.89-4.84,9.67-7.62,15.83-7.62
						c0.34,0,0.68,0.01,1.04,0.03l2.73,0.15l0.45,2.7c1.52,8.99,9.08,15.79,17.99,16.19l0.13,0l0.05,0
						c0.24,0.01,0.37,0.01,0.52,0.01l0.09,0c0.98-0.07,1.85,0.69,1.91,1.68c0.06,0.99-0.69,1.85-1.68,1.91
						c-0.12,0.01-0.23,0.01-0.34,0.01c-0.18,0-0.35-0.01-0.6-0.02l-0.13,0l-0.05,0c-10.57-0.44-19.56-8.45-21.42-19.05
						c-0.24-0.01-0.47-0.02-0.7-0.02c-5.07,0-9.82,2.28-13.02,6.27c-3.19,3.97-4.38,9.11-3.29,14.09c0.83,3.69-0.75,6.24-4.44,7.17
						c-3.14,0.81-5.76,2.82-7.37,5.64c-1.6,2.81-1.98,6.06-1.08,9.16c0.04,0.14,0.07,0.26,0.11,0.38c4.31-2.58,9.23-3.95,14.25-3.95
						c9.17,0,17.74,4.54,22.93,12.14c3.08,4.53,4.69,9.65,4.78,15.22c0.03,3.12-2.02,5.51-4.99,5.82
						C201.56,91.17,201.37,91.17,201.18,91.17z"/>
				</g>
				<path d="M231.47,46.12v-3.46h45.77l7.96-9.77l-0.19-0.37c-0.3-0.6-0.46-1.27-0.46-1.92c0-2.38,1.94-4.32,4.32-4.32
					c0.16,0,0.33,0.01,0.5,0.03c1.98,0.22,3.58,1.82,3.8,3.8c0.14,1.25-0.24,2.45-1.07,3.38c-0.82,0.91-1.99,1.44-3.22,1.44
					c-0.16,0-0.32-0.01-0.48-0.02l-0.34-0.03l-9.18,11.26H231.47z M288.99,28.36c-1.13,0-2.05,0.92-2.05,2.04
					c0,1.13,0.92,2.05,2.05,2.05c1.13,0,2.05-0.92,2.05-2.05C291.04,29.27,290.12,28.36,288.99,28.36z"/>
				<linearGradient id="SVGID_7_" gradientUnits="userSpaceOnUse" x1="231.4676" y1="122.1652" x2="293.1989" y2="122.1652">
					<stop  offset="0" style="stop-color:#BA0000"/>
					<stop  offset="0.4851" style="stop-color:#5F0E15"/>
					<stop  offset="1" style="stop-color:#000000"/>
				</linearGradient>
				<path class="st10" d="M288.87,132.09c-0.15,0-0.29-0.01-0.44-0.02c-1.99-0.2-3.61-1.79-3.84-3.78c-0.1-0.84,0.05-1.68,0.42-2.43
					l0.19-0.38l-7.96-9.78h-45.77v-3.45h47.41l9.19,11.28l0.36-0.05c0.15-0.02,0.3-0.03,0.45-0.03c2.38,0,4.32,1.94,4.32,4.32
					c0,1.15-0.45,2.24-1.27,3.06C291.11,131.64,290.03,132.09,288.87,132.09z M288.84,124.82c-1.63,0-2.96,1.33-2.96,2.96
					c0,1.64,1.33,2.97,2.96,2.97c1.64,0,2.97-1.33,2.97-2.97C291.81,126.15,290.48,124.82,288.84,124.82z"/>
				<path d="M252.75,96.89c-1.13,0-2.21-0.57-2.88-1.52l-0.19-0.27h-18.21v-3.46h18.21l0.19-0.28c0.66-0.95,1.74-1.52,2.89-1.52
					c0.96,0,1.85,0.38,2.52,1.07c0.67,0.69,1.02,1.6,1,2.56c-0.05,1.86-1.61,3.4-3.47,3.42L252.75,96.89z"/>
				<linearGradient id="SVGID_8_" gradientUnits="userSpaceOnUse" x1="231.4676" y1="75.0965" x2="289.8947" y2="75.0965">
					<stop  offset="0" style="stop-color:#BA0000"/>
					<stop  offset="0.4851" style="stop-color:#5F0E15"/>
					<stop  offset="1" style="stop-color:#000000"/>
				</linearGradient>
				<path class="st11" d="M288.39,74.45c-1.02-1.07-2.4-1.65-3.88-1.65c-2.2,0-4.15,1.32-4.99,3.36l-0.16,0.4h-18.17l-8.09-9.93
					h-21.63v3.46h19.99l8.09,9.93h19.89l0.17,0.38c0.87,1.93,2.79,3.17,4.89,3.17l0.09,0c2.8-0.05,5.18-2.36,5.29-5.16
					C289.95,76.92,289.42,75.52,288.39,74.45z M284.68,80.79c-1.34,0-2.43-1.09-2.43-2.43s1.09-2.43,2.43-2.43
					c1.34,0,2.43,1.09,2.43,2.43S286.03,80.79,284.68,80.79z"/>
			</g>
		</g>
	</g>
	<g>
		<linearGradient id="SVGID_9_" gradientUnits="userSpaceOnUse" x1="201.2633" y1="212.7735" x2="201.2633" y2="296.8889">
			<stop  offset="0" style="stop-color:#BA0000"/>
			<stop  offset="0.4851" style="stop-color:#5F0E15"/>
			<stop  offset="1" style="stop-color:#000000"/>
		</linearGradient>
		<path class="st12" d="M207.74,212.17c1.88,0.98,3.34,2.36,4.39,4.13c1.05,1.77,1.58,3.79,1.58,6.05c0,2.27-0.42,4.04-1.25,5.34
			c-0.83,1.29-1.99,1.94-3.48,1.94c-0.85,0-1.55-0.22-2.11-0.65c-0.56-0.43-0.92-1.06-1.07-1.87c-0.53,0.81-1.23,1.44-2.08,1.87
			c-0.86,0.43-1.85,0.65-2.96,0.65c-1.24,0-2.35-0.29-3.34-0.88c-0.99-0.58-1.77-1.39-2.32-2.43c-0.56-1.04-0.84-2.21-0.84-3.52
			c0-1.29,0.28-2.46,0.84-3.49c0.56-1.04,1.33-1.84,2.32-2.42c0.99-0.57,2.11-0.86,3.34-0.86c1.03,0,1.96,0.19,2.79,0.57
			c0.83,0.38,1.52,0.94,2.07,1.69v-2.15h2.31v9.56c0,0.65,0.14,1.14,0.42,1.45c0.28,0.31,0.65,0.46,1.09,0.46
			c0.78,0,1.38-0.45,1.82-1.37c0.43-0.91,0.65-2.2,0.65-3.86c0-1.96-0.44-3.69-1.33-5.19c-0.89-1.5-2.13-2.66-3.73-3.49
			c-1.6-0.83-3.44-1.25-5.51-1.25c-2.09,0-3.93,0.43-5.53,1.3c-1.6,0.87-2.84,2.08-3.73,3.64c-0.89,1.56-1.33,3.34-1.33,5.34
			c0,2.02,0.44,3.81,1.31,5.36c0.88,1.56,2.11,2.77,3.69,3.65c1.58,0.88,3.41,1.31,5.48,1.31c0.87,0,1.75-0.1,2.65-0.29
			c0.9-0.19,1.73-0.49,2.47-0.88l0.58,1.7c-0.78,0.41-1.68,0.72-2.71,0.93c-1.03,0.21-2.03,0.32-3,0.32c-2.42,0-4.58-0.52-6.46-1.55
			c-1.88-1.04-3.35-2.47-4.39-4.31c-1.04-1.84-1.57-3.92-1.57-6.24c0-2.32,0.53-4.39,1.58-6.21c1.05-1.82,2.53-3.25,4.43-4.27
			s4.08-1.54,6.52-1.54C203.73,210.69,205.86,211.18,207.74,212.17z M203.45,226.97c0.68-0.39,1.22-0.94,1.62-1.66
			c0.4-0.72,0.6-1.55,0.6-2.51c0-0.96-0.2-1.79-0.6-2.51c-0.4-0.72-0.94-1.27-1.62-1.65c-0.68-0.38-1.46-0.57-2.32-0.57
			c-1.35,0-2.43,0.43-3.27,1.29c-0.83,0.86-1.25,2-1.25,3.44c0,1.43,0.42,2.58,1.26,3.45c0.84,0.87,1.92,1.3,3.25,1.3
			C202,227.55,202.77,227.36,203.45,226.97z"/>
		<linearGradient id="SVGID_10_" gradientUnits="userSpaceOnUse" x1="237.0451" y1="212.7735" x2="237.0451" y2="296.8889">
			<stop  offset="0" style="stop-color:#BA0000"/>
			<stop  offset="0.4851" style="stop-color:#5F0E15"/>
			<stop  offset="1" style="stop-color:#000000"/>
		</linearGradient>
		<path class="st13" d="M226.63,215.31h2.13v11.19c0,0.03,0,0.05,0,0.08v0.21c0,0.87,0.5,1.99,1.39,2.26
			c0.13,0.04,0.26,0.06,0.41,0.06h5.95h1.07h5.95c0.14,0,0.28-0.02,0.41-0.06c0.89-0.27,1.39-1.39,1.39-2.26v-0.21
			c0-0.02,0-0.05,0-0.07l0-11.19h2.14v11.47c0,2.45-1.77,4.45-3.93,4.45h-5.95h-1.07h-5.95c-2.16,0-3.93-2.01-3.93-4.45V215.31z"/>
		<linearGradient id="SVGID_11_" gradientUnits="userSpaceOnUse" x1="266.3746" y1="212.7735" x2="266.3746" y2="296.8889">
			<stop  offset="0" style="stop-color:#BA0000"/>
			<stop  offset="0.4851" style="stop-color:#5F0E15"/>
			<stop  offset="1" style="stop-color:#000000"/>
		</linearGradient>
		<path class="st15" d="M256.77,217.5c-0.09-0.01-0.17-0.02-0.27-0.03v13.77h-2.13v-15.93h1.81c2.4,0.07,4.23,1.12,5.24,3.66
			l3.89,9.72c0.16,0.41,0.51,0.66,0.91,0.66h0.32c0.4,0,0.75-0.25,0.91-0.66l3.89-9.72c1.02-2.56,2.85-3.57,5.26-3.66l1.79,0v15.93
			h-2.13v-13.77c-0.1,0.01-0.19,0.02-0.28,0.04c-1.3,0.2-2.09,0.87-2.65,2.26l-3.89,9.72c-0.28,0.69-1.1,1.76-1.92,1.76h-2.26
			c-0.82,0-1.65-1.07-1.92-1.76l-3.89-9.72C258.88,218.38,258.08,217.69,256.77,217.5z"/>
		<linearGradient id="SVGID_12_" gradientUnits="userSpaceOnUse" x1="295.2276" y1="212.7735" x2="295.2276" y2="296.8889">
			<stop  offset="0" style="stop-color:#BA0000"/>
			<stop  offset="0.4851" style="stop-color:#5F0E15"/>
			<stop  offset="1" style="stop-color:#000000"/>
		</linearGradient>
		<path class="st16" d="M285.27,231.24v-15.93h2.89c1.69,0,3.13,0.76,4.21,2.23l7.35,9.92l0.21,0.28c0.63,0.85,1.42,1.36,2.5,1.36
			h0.62v-0.21v-13.58h2.14v15.93h-2.89c-1.69,0-3.13-0.76-4.21-2.23l-7.35-9.92c0-0.01-0.01-0.01-0.01-0.02l-0.2-0.27
			c-0.63-0.85-1.42-1.36-2.5-1.36h-0.62v0.21v13.58H285.27z"/>
	</g>
	<g>
		<linearGradient id="SVGID_13_" gradientUnits="userSpaceOnUse" x1="168.0998" y1="79.1738" x2="416.7003" y2="79.1738">
			<stop  offset="0" style="stop-color:#BA0000"/>
			<stop  offset="0.4851" style="stop-color:#5F0E15"/>
			<stop  offset="1" style="stop-color:#000000"/>
		</linearGradient>
		<path class="st17" d="M212.39,158.35c-9.58,0-17.79-6.45-19.97-15.68c-1.41-5.99-0.03-12.21,3.76-17.08
			c0.61-0.78,1.74-0.92,2.53-0.31c0.78,0.61,0.92,1.74,0.31,2.53c-3.12,4.01-4.25,9.12-3.1,14.04c1.79,7.59,8.56,12.9,16.46,12.9
			c0.68,0,1.37-0.04,2.04-0.12c8.11-0.92,14.46-8.13,14.47-16.41V15.39c0-3.31-1.43-6.49-3.91-8.73c-2.55-2.3-5.85-3.36-9.3-2.99
			c-5.19,0.57-9.33,4.51-10.3,9.8c-0.92,5.03,1.67,10.18,6.3,12.53c1.68,0.84,3.44,1.27,5.36,1.3c0.99,0.02,1.79,0.84,1.77,1.83
			c-0.02,0.99-0.86,1.8-1.83,1.77c-2.47-0.04-4.73-0.59-6.92-1.68c-6.05-3.06-9.43-9.8-8.23-16.39c1.26-6.86,6.66-11.98,13.45-12.73
			c4.41-0.47,8.82,0.95,12.1,3.89c3.24,2.92,5.1,7.07,5.1,11.41v122.83c-0.01,10.08-7.76,18.86-17.66,19.99
			C214.03,158.3,213.2,158.35,212.39,158.35z"/>
	</g>
</g>
</svg>
